<svg xmlns="http://www.w3.org/2000/svg" version="1.1" viewBox="261.5 308.37 602.32 508.37">
<g id="#fbe474ff">
<path fill="#fbe474" opacity="1.00" d=" M 518.37 309.36 C 523.11 306.35 529.21 310.64 529.00 315.98 C 532.16 336.03 535.51 356.05 538.63 376.11 C 539.59 381.27 533.47 385.61 528.89 383.19 C 525.95 381.99 524.85 378.76 524.61 375.85 C 521.51 356.26 518.31 336.70 515.18 317.12 C 514.44 314.18 515.69 310.86 518.37 309.36 Z"/>
<path fill="#fbe474" opacity="1.00" d=" M 577.44 311.71 C 581.80 309.08 588.07 312.85 587.60 317.97 C 585.53 338.66 583.24 359.34 581.06 380.02 C 581.02 383.72 577.69 386.93 573.98 386.76 C 570.06 386.77 566.67 382.97 567.30 379.06 C 569.42 358.55 571.64 338.06 573.81 317.56 C 573.95 315.15 575.26 312.83 577.44 311.71 Z"/>
<path fill="#fbe474" opacity="1.00" d=" M 461.24 322.24 C 464.78 320.27 469.61 322.17 470.95 325.97 C 479.45 344.79 488.02 363.59 496.48 382.43 C 498.06 385.69 496.47 389.96 493.18 391.45 C 489.84 393.16 485.32 391.54 483.90 388.04 C 475.38 369.35 466.94 350.61 458.46 331.91 C 456.52 328.60 457.77 323.93 461.24 322.24 Z"/>
<path fill="#fbe474" opacity="1.00" d=" M 409.49 349.78 C 412.40 348.33 416.13 349.35 418.04 351.95 C 431.15 367.82 444.29 383.67 457.37 399.56 C 461.11 403.40 458.39 410.60 453.05 410.99 C 448.82 411.71 446.22 407.87 443.95 405.02 C 431.72 390.19 419.45 375.40 407.23 360.57 C 404.22 357.34 405.44 351.53 409.49 349.78 Z"/>
</g>
<g id="#8ec7f4ff">
<path fill="#8ec7f4" opacity="1.00" d=" M 624.27 372.36 C 628.28 364.91 639.62 363.37 645.56 369.34 C 650.54 373.69 651.38 381.45 648.08 387.05 C 635.69 410.72 623.41 434.45 611.24 458.23 C 609.88 461.20 614.55 462.96 616.74 461.68 C 618.40 460.36 619.43 458.42 620.72 456.76 C 638.60 431.99 656.42 407.18 674.38 382.48 C 678.43 376.89 686.62 374.74 692.69 378.27 C 699.55 381.93 700.93 391.68 696.91 397.94 C 679.25 425.65 661.42 453.27 643.88 481.05 C 642.15 483.30 645.52 484.61 646.99 485.60 C 665.68 466.73 684.15 447.63 702.72 428.63 C 705.54 425.37 709.56 422.85 714.02 423.11 C 720.74 423.15 726.77 429.25 726.40 436.03 C 726.48 440.08 724.14 443.56 721.52 446.44 C 704.41 467.01 687.12 487.44 670.06 508.06 C 671.21 510.15 673.03 511.71 674.99 513.03 C 682.18 508.30 689.02 503.06 696.14 498.22 C 703.05 493.52 709.58 487.56 717.99 485.78 C 722.69 484.74 728.72 486.47 730.43 491.41 C 732.17 495.93 729.75 500.56 727.21 504.22 C 721.77 512.37 713.38 517.72 706.04 523.95 C 694.66 533.20 683.87 543.18 673.81 553.85 C 661.43 566.47 648.64 578.70 635.17 590.16 C 626.62 597.37 617.31 604.11 606.53 607.53 C 608.41 598.80 608.44 589.81 607.93 580.94 C 605.19 547.69 600.66 514.44 602.06 481.00 C 602.11 473.47 603.65 465.53 600.67 458.35 C 598.60 453.65 592.07 453.51 588.45 456.45 C 579.64 462.84 573.39 473.05 572.45 483.98 C 571.46 493.04 570.31 502.09 569.14 511.13 C 568.87 516.03 563.82 519.73 559.09 519.13 C 555.89 518.43 553.34 516.19 550.95 514.09 C 543.64 507.50 538.51 499.01 532.95 490.99 C 528.41 484.50 524.01 477.92 519.53 471.39 L 519.26 470.97 C 519.09 454.98 518.15 438.98 516.28 423.09 C 515.71 417.84 515.11 412.24 517.15 407.22 C 519.17 402.86 525.22 402.44 528.87 404.96 C 538.07 410.67 545.04 420.34 546.78 431.11 C 548.40 440.45 550.28 449.73 552.13 459.03 C 552.84 462.67 556.40 465.17 559.94 465.66 C 562.86 466.19 565.47 464.39 567.58 462.59 C 573.31 457.52 577.64 451.11 581.51 444.56 C 595.67 420.44 609.96 396.39 624.27 372.36 Z"/>
</g>
<g id="#438cc9ff">
<path fill="#438cc9" opacity="1.00" d=" M 465.94 436.95 C 466.50 431.08 471.17 425.74 477.03 424.69 C 482.41 423.58 488.41 425.85 491.34 430.58 C 500.68 444.03 509.89 457.56 519.26 470.97 L 519.53 471.39 C 518.40 487.34 519.09 503.36 518.34 519.32 C 517.76 534.85 517.09 551.75 525.43 565.56 C 535.63 581.53 551.03 593.60 567.75 602.19 C 579.51 608.16 593.18 611.29 606.20 607.92 C 602.47 620.67 593.50 631.09 584.14 640.18 C 571.78 651.26 557.43 661.30 540.80 664.35 C 526.60 666.79 512.81 660.45 501.29 652.73 C 488.38 643.87 476.27 633.88 464.34 623.75 C 454.57 615.52 445.43 606.55 435.34 598.70 C 426.93 592.04 418.17 585.84 409.34 579.76 C 403.33 575.55 397.65 570.46 394.17 563.90 C 391.81 559.68 392.91 553.55 397.43 551.27 C 403.78 547.84 411.15 550.95 416.97 554.07 C 427.98 560.70 438.93 567.44 449.90 574.15 C 451.92 572.83 453.57 571.07 454.73 568.96 C 437.37 550.42 419.56 532.30 402.08 513.87 C 398.84 510.30 394.49 507.07 393.75 501.97 C 392.58 496.33 395.87 490.31 401.14 488.10 C 405.84 485.93 411.67 487.10 415.38 490.64 C 435.55 508.70 455.80 526.68 475.93 544.80 C 477.52 543.95 480.82 542.35 479.01 540.15 C 459.72 513.76 440.19 487.53 420.74 461.25 C 417.18 456.56 416.46 449.70 419.61 444.62 C 422.95 439.17 430.54 437.23 436.29 439.78 C 440.82 441.64 443.55 445.90 446.59 449.50 C 465.56 472.18 484.35 495.02 503.32 517.71 C 505.06 520.45 510.21 519.25 510.43 515.99 C 496.80 492.96 482.79 470.13 468.81 447.30 C 466.84 444.25 465.51 440.63 465.94 436.95 Z"/>
</g>
<g id="#256dc0ff">
<path fill="#256dc0" opacity="1.00" d=" M 588.45 456.45 C 592.07 453.51 598.60 453.65 600.67 458.35 C 603.65 465.53 602.11 473.47 602.06 481.00 C 600.66 514.44 605.19 547.69 607.93 580.94 C 608.44 589.81 608.41 598.80 606.53 607.53 L 606.47 607.87 L 606.20 607.92 C 593.18 611.29 579.51 608.16 567.75 602.19 C 551.03 593.60 535.63 581.53 525.43 565.56 C 517.09 551.75 517.76 534.85 518.34 519.32 C 519.09 503.36 518.40 487.34 519.53 471.39 C 524.01 477.92 528.41 484.50 532.95 490.99 C 538.51 499.01 543.64 507.50 550.95 514.09 C 553.34 516.19 555.89 518.43 559.09 519.13 C 563.82 519.73 568.87 516.03 569.14 511.13 C 570.31 502.09 571.46 493.04 572.45 483.98 C 573.39 473.05 579.64 462.84 588.45 456.45 Z"/>
</g>
<g id="#ee6d93ff">
<path fill="#ee6d93" opacity="1.00" d=" M 764.50 695.63 C 769.38 694.15 775.45 695.03 778.81 699.16 C 782.49 703.69 781.20 711.20 776.31 714.36 C 770.45 718.26 760.76 716.76 757.82 709.88 C 755.24 704.33 758.60 697.22 764.50 695.63 Z"/>
<path fill="#ee6d93" opacity="1.00" d=" M 844.56 700.50 C 850.98 700.50 857.40 700.49 863.82 700.51 C 863.80 730.94 863.82 761.38 863.81 791.81 C 857.69 791.82 851.58 791.77 845.47 791.84 C 845.44 789.44 845.43 787.05 845.42 784.67 C 831.92 798.51 805.95 794.08 796.54 777.59 C 787.84 762.59 790.58 740.46 805.45 730.33 C 816.95 722.60 834.50 721.97 844.59 732.41 C 844.52 721.77 844.58 711.13 844.56 700.50 M 821.49 741.65 C 810.74 745.88 808.43 760.72 814.19 769.79 C 818.93 777.38 830.11 779.17 837.42 774.34 C 845.78 768.74 847.00 756.24 842.13 747.97 C 838.08 741.05 828.71 738.70 821.49 741.65 Z"/>
<path fill="#ee6d93" opacity="1.00" d=" M 261.50 705.69 C 268.16 705.68 274.82 705.69 281.49 705.68 C 281.52 716.99 281.50 728.30 281.50 739.62 C 294.52 739.63 307.54 739.62 320.56 739.62 C 320.56 728.31 320.56 717.00 320.56 705.69 C 327.22 705.68 333.89 705.69 340.55 705.68 C 340.58 734.39 340.55 763.10 340.57 791.81 C 333.91 791.83 327.25 791.78 320.59 791.83 C 320.53 780.07 320.59 768.32 320.56 756.56 C 307.54 756.56 294.52 756.56 281.51 756.56 C 281.53 768.29 281.44 780.02 281.55 791.74 C 274.87 791.89 268.19 791.77 261.51 791.82 C 261.49 763.11 261.50 734.40 261.50 705.69 Z"/>
<path fill="#ee6d93" opacity="1.00" d=" M 510.88 705.69 C 524.26 705.69 537.65 705.68 551.04 705.69 C 563.29 705.79 575.98 709.51 585.03 718.06 C 602.61 734.50 601.67 766.67 582.56 781.59 C 572.38 789.79 558.85 792.35 546.05 791.81 C 534.33 791.80 522.60 791.81 510.88 791.81 C 510.87 763.10 510.87 734.40 510.88 705.69 M 530.88 722.13 C 530.87 739.89 530.87 757.66 530.88 775.43 C 537.58 775.39 544.29 775.54 551.00 775.36 C 558.56 775.07 566.36 772.28 571.33 766.38 C 577.77 758.77 578.70 747.60 575.55 738.40 C 572.69 730.00 564.69 724.16 556.09 722.73 C 547.75 721.51 539.27 722.39 530.88 722.13 Z"/>
<path fill="#ee6d93" opacity="1.00" d=" M 362.99 736.03 C 377.03 720.13 406.10 720.65 418.43 738.38 C 423.64 745.81 425.20 755.29 424.10 764.19 C 407.36 764.23 390.62 764.12 373.88 764.24 C 375.18 768.64 377.89 772.76 382.07 774.88 C 390.91 779.39 402.44 777.83 409.70 771.01 C 412.96 774.82 416.47 778.41 419.84 782.14 C 414.30 788.33 406.26 791.76 398.09 792.53 C 385.98 793.85 372.67 791.06 363.88 782.15 C 351.76 770.10 351.58 748.61 362.99 736.03 M 377.59 744.46 C 375.44 746.81 374.40 749.88 373.67 752.92 C 384.58 752.95 395.48 752.95 406.39 752.92 C 405.67 750.08 404.76 747.19 402.83 744.93 C 396.81 737.39 383.91 737.24 377.59 744.46 Z"/>
<path fill="#ee6d93" opacity="1.00" d=" M 609.21 732.64 C 619.29 725.78 632.05 723.79 644.01 724.94 C 652.51 725.71 661.42 729.48 665.78 737.21 C 669.88 744.05 669.85 752.28 669.69 759.99 C 669.69 770.60 669.69 781.20 669.69 791.81 C 663.69 791.81 657.70 791.80 651.70 791.82 C 651.67 789.16 651.67 786.51 651.75 783.86 C 648.61 788.56 643.39 791.50 637.85 792.32 C 629.40 793.61 619.86 792.64 613.12 786.90 C 606.36 781.26 604.89 770.67 609.20 763.13 C 612.28 757.90 618.17 755.13 623.92 753.97 C 632.68 752.18 641.68 753.22 650.56 752.92 C 650.60 747.92 647.93 742.70 642.93 741.14 C 633.93 738.29 623.72 740.64 616.12 746.05 C 613.82 741.57 611.56 737.08 609.21 732.64 M 635.15 764.24 C 632.13 764.46 628.72 765.12 626.79 767.69 C 624.28 771.15 625.68 776.60 629.59 778.39 C 636.16 781.47 645.34 779.77 649.29 773.33 C 651.16 770.64 650.25 767.22 650.43 764.19 C 645.34 764.24 640.24 764.09 635.15 764.24 Z"/>
<path fill="#ee6d93" opacity="1.00" d=" M 426.10 725.63 C 432.75 725.65 439.40 725.56 446.05 725.68 C 452.10 740.61 458.37 755.45 464.46 770.36 C 470.82 755.50 476.91 740.52 483.17 725.62 C 489.35 725.63 495.52 725.62 501.70 725.63 C 492.54 747.20 483.35 768.76 474.17 790.32 C 470.57 799.13 466.74 809.08 457.78 813.74 C 447.71 818.65 434.80 817.44 425.80 810.76 C 428.11 806.16 430.49 801.60 432.83 797.02 C 436.98 800.18 442.52 802.22 447.69 800.53 C 451.38 799.31 453.32 795.62 454.80 792.30 C 445.16 770.11 435.67 747.85 426.10 725.63 Z"/>
<path fill="#ee6d93" opacity="1.00" d=" M 703.60 791.72 C 694.59 769.60 684.94 747.73 676.04 725.56 C 682.63 725.69 689.21 725.59 695.80 725.63 C 702.03 740.45 707.62 755.57 714.24 770.20 C 720.49 755.34 726.74 740.48 733.00 725.63 C 739.17 725.62 745.35 725.62 751.53 725.63 C 742.23 747.69 732.90 769.73 723.62 791.80 C 716.95 791.78 710.27 791.91 703.60 791.72 Z"/>
<path fill="#ee6d93" opacity="1.00" d=" M 759.25 725.68 C 765.68 725.56 772.12 725.65 778.55 725.62 C 778.58 747.68 778.55 769.74 778.57 791.81 C 772.15 791.81 765.73 791.81 759.31 791.81 C 759.27 769.76 759.39 747.72 759.25 725.68 Z"/>
</g>
</svg>