<svg xmlns="http://www.w3.org/2000/svg" viewBox="0 0 300 300"><defs><style>.cls-1{isolation:isolate;}.cls-2{fill:#8ec7f4;}.cls-3{mix-blend-mode:multiply;}.cls-4{fill:#438cc9;}.cls-5{fill:#fbe474;}</style></defs><g class="cls-1"><g id="Layer_1" data-name="Layer 1"><path class="cls-2" d="M171.08,137.67a1,1,0,0,0-.14,1,1.85,1.85,0,0,0,2.86.38c1-1.31,1.92-2.64,2.87-4q5.52-7.64,11-15.29c2.88-4,5.74-8,8.63-11.92a19.26,19.26,0,0,1,2.61-3.29,6,6,0,0,1,7.07-.65,5.82,5.82,0,0,1,2.35,6.32c-.41,1.73-1.56,3-2.46,4.5-1.53,2.48-3.14,4.92-4.71,7.38q-1.89,3-3.79,5.94c-1.56,2.44-3.13,4.88-4.68,7.32s-3.21,5-4.81,7.55c-1,1.56-2,3.12-3,4.69-.37.59-.22,1,.53,1.49.46.33.85.58,1.39,0,1.84-2,3.75-3.86,5.63-5.79l18.21-18.65a5.5,5.5,0,0,1,7.71-.33,5.44,5.44,0,0,1,.44,7.59q-6.57,7.91-13.18,15.78-4.54,5.44-9.12,10.87a.83.83,0,0,0-.06,1.19,6.06,6.06,0,0,0,1.34,1.24.72.72,0,0,0,1,0c3-2.11,5.92-4.24,8.92-6.31a41.09,41.09,0,0,1,6.48-4.21,7.38,7.38,0,0,1,5-.73,3.69,3.69,0,0,1,2.82,2.75,5.29,5.29,0,0,1-.9,4.07,22.38,22.38,0,0,1-5.49,6,158,158,0,0,0-15.72,13.87c-5.59,5.79-11.36,11.42-17.46,16.69a45.27,45.27,0,0,1-10.93,7.5,18,18,0,0,1-10.87,1.44c-5.36-1-10-3.51-14.49-6.54a44.76,44.76,0,0,1-9.69-8.95,21,21,0,0,1-4.64-10.11,58.77,58.77,0,0,1-.51-11.09c.25-6.29.27-12.59.41-18.88a174,174,0,0,0-1.27-24.25,15.46,15.46,0,0,1,.12-5.21,3,3,0,0,1,1.62-2.22,4.06,4.06,0,0,1,4.15.63,17.59,17.59,0,0,1,5.46,6,15.93,15.93,0,0,1,1.84,5.64c.64,3.75,1.43,7.47,2.14,11.2a3.88,3.88,0,0,0,5.12,2.55,11.08,11.08,0,0,0,2.91-2.41c2.94-3.12,4.83-6.93,7-10.54,1.58-2.61,3.09-5.27,4.65-7.89q3-5.06,6-10.09c1.76-3,3.47-5.93,5.27-8.86a5.91,5.91,0,0,1,8.32-1.53,6,6,0,0,1,1.73,7.87c-4.38,8.46-8.86,16.88-13.13,25.4Z"/><g class="cls-3"><path class="cls-4" d="M124.82,157.21C120,149,114.94,140.91,110,132.77a6,6,0,0,1,1.2-8,5.91,5.91,0,0,1,8.4,1c2,2.81,3.91,5.66,5.86,8.49q3.35,4.83,6.68,9.65c1.73,2.52,3.42,5.07,5.18,7.56,2.42,3.46,4.57,7.13,7.71,10a11.32,11.32,0,0,0,3.07,2.21,3.89,3.89,0,0,0,4.94-2.89c.45-3.78,1-7.54,1.38-11.32a15.83,15.83,0,0,1,1.45-5.75,17.59,17.59,0,0,1,5-6.31,4.06,4.06,0,0,1,4.1-.91,3,3,0,0,1,1.77,2.11,15.36,15.36,0,0,1,.47,5.18,174.27,174.27,0,0,0,.38,24.29c.57,6.26,1,12.54,1.69,18.8a58.84,58.84,0,0,1,.24,11.1,20.91,20.91,0,0,1-3.94,10.4,44.59,44.59,0,0,1-9.06,9.59c-4.22,3.33-8.73,6.17-14,7.51a18,18,0,0,1-10.94-.7,45.16,45.16,0,0,1-11.42-6.74c-6.44-4.85-12.58-10.07-18.55-15.47A157.88,157.88,0,0,0,85,189.83a22.35,22.35,0,0,1-5.9-5.65,5.29,5.29,0,0,1-1.17-4,3.68,3.68,0,0,1,2.63-2.93,7.37,7.37,0,0,1,5,.39,41.18,41.18,0,0,1,6.75,3.75c3.13,1.87,6.22,3.79,9.33,5.7a.72.72,0,0,0,1-.05,6,6,0,0,0,1.25-1.32.83.83,0,0,0-.14-1.19q-4.92-5.1-9.83-10.22-7.11-7.42-14.22-14.85a5.46,5.46,0,0,1,7.64-7.8q9.72,8.67,19.43,17.37c2,1.79,4,3.56,6,5.39.58.54.95.27,1.38-.09.72-.6.84-1,.44-1.53-1.09-1.5-2.2-3-3.3-4.47L106,161.12l-5.17-7-4.19-5.67c-1.74-2.35-3.5-4.67-5.2-7-1-1.39-2.23-2.63-2.76-4.33a5.82,5.82,0,0,1,1.92-6.46,5.93,5.93,0,0,1,7.09.17,18.48,18.48,0,0,1,2.83,3.1q4.73,5.64,9.42,11.31,6,7.25,12,14.51c1,1.25,2.08,2.51,3.13,3.75a1.86,1.86,0,0,0,2.84-.58,1,1,0,0,0-.21-.94C126.76,160.38,125.79,158.79,124.82,157.21Z"/></g><rect class="cls-5" x="91.73" y="88.28" width="5.87" height="32.49" rx="2.93" transform="translate(-44.89 84.26) rotate(-39.57)"/><rect class="cls-5" x="110.93" y="78.34" width="5.87" height="32.49" rx="2.93" transform="translate(-28.88 55.39) rotate(-24.36)"/><rect class="cls-5" x="132.07" y="73.78" width="5.87" height="32.49" rx="2.93" transform="translate(-12.6 22.61) rotate(-9.15)"/><rect class="cls-5" x="140.35" y="88.25" width="32.49" height="5.87" rx="2.93" transform="translate(49.39 237.27) rotate(-83.94)"/></g></g></svg>